<svg xmlns="http://www.w3.org/2000/svg" width="1024" height="1024" viewBox="0 0 1024 1024"><g fill="color(display-p3 0.298 0.851 0.392)" transform="translate(320 256)"><path d="M33.1722828,46.1283599 C48.9193746,33.7556448 72,44.9736429 72,65 L72,291.429 L72.8055755,291.532144 C96.1908956,294.566145 116.248743,302.137402 132.068828,314.523768 L132.707858,315.028557 C155.903773,333.51476 168,361.074799 168,395 L168,415 C168,454.764502 135.764502,487 96,487 C56.235498,487 24,454.764502 24,415 L24,336.196 L22.6995152,335.993657 C-31.1706409,327.249405 -71.0739055,290.616196 -71.9841048,239.779126 L-72,238 C-72,169.138677 -30.446536,96.1145746 33.1722828,46.1283599 Z M72,339.957 L72,415 C72,428.254834 82.745166,439 96,439 C109.254834,439 120,428.254834 120,415 L120,395 C120,375.112566 114.037741,361.528156 102.792142,352.56587 C95.362097,346.644425 85.206813,342.38852 72.5596584,340.058844 L72,339.957 Z M24,121.541 L23.2255664,122.472292 C-6.36036354,158.299387 -24,199.951917 -24,238 C-24,252.537087 -17.5636144,264.830376 -5.32169102,274.165944 C2.58865481,280.198294 12.60836,284.709973 23.973781,287.343338 L24,287.349 L24,121.541 Z"/><g transform="translate(144 88)"><path d="M0,-87 C13.254834,-87 24,-76.254834 24,-63 L24,119 C24,132.254834 34.745166,143 48,143 L240,143 C253.254834,143 264,132.254834 264,119 L264,102 C264,88.745166 274.745166,78 288,78 C301.254834,78 312,88.745166 312,102 L312,119 C312,158.764502 279.764502,191 240,191 L48,191 C8.23549801,191 -24,158.764502 -24,119 L-24,-63 C-24,-76.254834 -13.254834,-87 0,-87 Z"/><path d="M97.0520606-87.0000012C110.306863-86.9711913 121.028696-76.2027422 120.999999-62.9479394L119.999944 398.052061C119.971191 411.306863 109.202742 422.028696 95.9479394 421.999999 82.6931366 421.971191 71.9713042 411.202742 71.9999988 397.947939L73.0000565-63.0520606C73.0288087-76.3068634 83.7972578-87.0286958 97.0520606-87.0000012ZM193.062992-47.0000018C206.31778-46.9651279 217.034707-36.1917964 216.999998-22.9370081L215.999917 358.062992C215.965128 371.31778 205.191796 382.034707 191.937008 381.999998 178.68222 381.965128 167.965293 371.191796 167.999998 357.937008L169.000083-23.0629919C169.034872-36.3177802 179.808204-47.0347068 193.062992-47.0000018Z"/></g></g></svg>